# xmcd CD database file
#
# Track frame offsets:
#	150
#	14970
#	29627
#	41475
#	54630
#	71685
#	84397
#	99440
#	114170
#	124782
#	136600
#	148885
#	162415
#	171622
#	182515
#	195260
#	209240
#
# Disc length: 2955 seconds
#
# Revision: 0
# Processed by: cddbd v1.4PL0 Copyright (c) Steve Scherf et al.
# Submitted via: CDex 1.50
#
DISCID=fb0b8911
DTITLE=Django Reinhardt - Le meilleur de DJANGO
DYEAR=2003
DGENRE=Jazz
TTITLE0=Nuages
TTITLE1=Minor Swing
TTITLE2=Tears PARIS
TTITLE3=Djangology
TTITLE4=Manoir de mes rêves
TTITLE5=Christmas swing
TTITLE6=Improvisation sur le 1er mouv. du concerto en ré mineur de J.S. Bach
TTITLE7=Mélodie au crépuscule
TTITLE8=Douce ambiance
TTITLE9=DJANGO's tiger
TTITLE10=Sweet chorus
TTITLE11=Daphné
TTITLE12=Improvisation n°5
TTITLE13=Swing guitars
TTITLE14=Improvisation sur une danse norvégienne
TTITLE15=Eddie's blues
TTITLE16=Echoes of FRANCE (La Marseillaise)
EXTD=YEAR: 2003
EXTT0=
EXTT1=
EXTT2=
EXTT3=
EXTT4=
EXTT5=
EXTT6=
EXTT7=
EXTT8=
EXTT9=
EXTT10=
EXTT11=
EXTT12=
EXTT13=
EXTT14=
EXTT15=
EXTT16=
PLAYORDER=
